<svg xmlns="http://www.w3.org/2000/svg" width="20" height="20" viewBox="0 0 20 20" fill="none">
  <path d="M13.8982 12.4415C14.7219 11.3201 15.2084 9.93561 15.2084 8.43749C15.2084 4.69806 12.177 1.66666 8.43758 1.66666C4.69815 1.66666 1.66675 4.69806 1.66675 8.43749C1.66675 12.1769 4.69815 15.2083 8.43758 15.2083C9.93611 15.2083 11.3209 14.7215 12.4425 13.8974L12.4416 13.8981C12.4724 13.9397 12.5066 13.9796 12.5443 14.0173L16.5552 18.0282C16.962 18.435 17.6215 18.435 18.0283 18.0282C18.4351 17.6214 18.4351 16.9619 18.0283 16.5551L14.0174 12.5442C13.9797 12.5065 13.9398 12.4723 13.8982 12.4415ZM14.1667 8.43749C14.1667 11.6016 11.6017 14.1667 8.43758 14.1667C5.27345 14.1667 2.70841 11.6016 2.70841 8.43749C2.70841 5.27336 5.27345 2.70832 8.43758 2.70832C11.6017 2.70832 14.1667 5.27336 14.1667 8.43749Z" fill="#0E253C" fill-opacity="0.85"/>
</svg>